{"accessors":[{"bufferView":0,"byteOffset":0,"componentType":5126,"count":1005,"max":[25,3.958998,25],"min":[-25,-2.958013,-25],"normalized":false,"type":"VEC3"},{"bufferView":1,"byteOffset":0,"componentType":5126,"count":1005,"max":[1,0.744333,1,1],"min":[-1,-1,-1,-1],"normalized":false,"type":"VEC4"},{"bufferView":2,"byteOffset":0,"componentType":5126,"count":1005,"max":[1,1,1],"min":[-1,-1,-1],"normalized":false,"type":"VEC3"},{"bufferView":3,"byteOffset":0,"componentType":5126,"count":1005,"max":[1,1],"min":[0,0],"normalized":false,"type":"VEC2"},{"bufferView":4,"byteOffset":0,"componentType":5125,"count":1005,"max":[1004],"min":[0],"normalized":false,"type":"SCALAR"}],"asset":{"generator":"Godot Engine v4.2.2.stable.official@15073afe3856abd2aa1622492fe50026c7d63dc1","version":"2.0"},"bufferViews":[{"buffer":0,"byteLength":12060,"byteOffset":0},{"buffer":0,"byteLength":16080,"byteOffset":12060},{"buffer":0,"byteLength":12060,"byteOffset":28140},{"buffer":0,"byteLength":8040,"byteOffset":40200},{"buffer":0,"byteLength":4020,"byteOffset":48240}],"buffers":[{"byteLength":52260,"uri":"csg_level0.bin"}],"extensionsUsed":["GODOT_single_root"],"materials":[{"extensions":{},"pbrMetallicRoughness":{"baseColorFactor":[0.99999988079071,0.99999988079071,0.99999988079071,1],"metallicFactor":0,"roughnessFactor":1}}],"meshes":[{"extras":{"targetNames":[]},"primitives":[{"attributes":{"NORMAL":2,"POSITION":0,"TANGENT":1,"TEXCOORD_0":3},"indices":4,"material":0,"mode":4}]}],"nodes":[{"children":[1],"extensions":{},"name":"Node3D"},{"children":[2,3,4,5],"extensions":{},"mesh":0,"name":"CSGBox3D2","translation":[0,1,0]},{"extensions":{},"name":"CSGBox3D22","translation":[0,1,0]},{"extensions":{},"name":"CSGBox3D3","rotation":[0,0.274009555578232,0,0.96172696352005],"translation":[-5.27799987792969,-0.5,-13.8719997406006]},{"extensions":{},"name":"CSGTorus3D","rotation":[-0.23929332196712,0.271769046783447,-0.26012051105499,0.895107626914978],"translation":[-11.6056518554688,0.500492334365845,13.2210645675659]},{"children":[6,7],"extensions":{},"name":"CSGBox3D4","translation":[11.6890001296997,0.5,0]},{"extensions":{},"name":"CSGBox3D42","translation":[0,-0.25,0]},{"extensions":{},"name":"CSGPolygon3D","rotation":[0,-0.70710676908493,0,0.70710676908493],"translation":[3.65199947357178,-1.5,5]}],"scene":0,"scenes":[{"nodes":[0]}]}